# Blender v3.5.1 OBJ File: ''
# www.blender.org
mtllib shelf.mtl
o Cube.001
v -1.980000 -0.100000 -0.500000
v -1.980000 0.100000 -0.500000
v 1.980000 0.100000 -0.500000
v 1.980000 -0.100000 -0.500000
v -1.980000 -0.100000 0.316667
v 1.980000 -0.100000 0.316667
v 1.980000 -0.100000 0.500000
v -1.980000 -0.100000 0.500000
v 1.980000 0.100000 0.500000
v -1.980000 0.100000 0.500000
v 1.980000 0.100000 0.316667
v -1.980000 0.100000 0.316667
v -1.980000 0.100000 -0.316667
v 1.980000 0.100000 -0.316667
v 2.200000 0.100000 -0.316667
v 2.200000 0.100000 0.316667
v 1.980000 -0.100000 -0.316667
v -1.980000 -0.100000 -0.316667
v -2.200000 -0.100000 -0.316667
v -2.200000 -0.100000 0.316667
v 2.200000 -0.100000 -0.316667
v 2.200000 -0.100000 0.316667
v -2.200000 0.100000 0.316667
v -2.200000 0.100000 -0.316667
v -1.980000 1.900000 -0.500000
v -1.980000 2.100000 -0.500000
v 1.980000 2.100000 -0.500000
v 1.980000 1.900000 -0.500000
v -1.980000 1.900000 0.316667
v 1.980000 1.900000 0.316667
v 1.980000 1.900000 0.500000
v -1.980000 1.900000 0.500000
v 1.980000 2.100000 0.500000
v -1.980000 2.100000 0.500000
v 1.980000 2.100000 0.316667
v -1.980000 2.100000 0.316667
v -1.980000 2.100000 -0.316667
v 1.980000 2.100000 -0.316667
v 2.200000 2.100000 -0.316667
v 2.200000 2.100000 0.316667
v 1.980000 1.900000 -0.316667
v -1.980000 1.900000 -0.316667
v -2.200000 1.900000 -0.316667
v -2.200000 1.900000 0.316667
v 2.200000 1.900000 -0.316667
v 2.200000 1.900000 0.316667
v -2.200000 2.100000 0.316667
v -2.200000 2.100000 -0.316667
v -1.980000 3.900000 -0.500000
v -1.980000 4.100000 -0.500000
v 1.980000 4.100000 -0.500000
v 1.980000 3.900000 -0.500000
v -1.980000 3.900000 0.316667
v 1.980000 3.900000 0.316667
v 1.980000 3.900000 0.500000
v -1.980000 3.900000 0.500000
v 1.980000 4.100000 0.500000
v -1.980000 4.100000 0.500000
v 1.980000 4.100000 0.316667
v -1.980000 4.100000 0.316667
v -1.980000 4.100000 -0.316667
v 1.980000 4.100000 -0.316667
v 2.200000 4.100000 -0.316667
v 2.200000 4.100000 0.316667
v 1.980000 3.900000 -0.316667
v -1.980000 3.900000 -0.316667
v -2.200000 3.900000 -0.316667
v -2.200000 3.900000 0.316667
v 2.200000 3.900000 -0.316667
v 2.200000 3.900000 0.316667
v -2.200000 4.100000 0.316667
v -2.200000 4.100000 -0.316667
v -2.200000 0.100000 0.500000
v -2.200000 -0.100000 0.500000
v -2.200000 0.100000 -0.500000
v -2.200000 -0.100000 -0.500000
v 2.200000 -0.100000 0.500000
v 2.200000 -1.000000 0.500000
v 2.200000 -1.000000 0.316667
v 2.200000 0.100000 0.500000
v 2.200000 0.100000 -0.500000
v 2.200000 -0.100000 -0.500000
v 2.200000 -1.000000 -0.316667
v 2.200000 -1.000000 -0.500000
v 1.980000 -1.000000 0.316667
v 1.980000 -1.000000 -0.316667
v 1.980000 -1.000000 0.500000
v -2.200000 -1.000000 0.316667
v -1.980000 -1.000000 0.316667
v -1.980000 -1.000000 0.500000
v -2.200000 -1.000000 0.500000
v -2.200000 -1.000000 -0.500000
v -1.980000 -1.000000 -0.500000
v -1.980000 -1.000000 -0.316667
v -2.200000 -1.000000 -0.316667
v 1.980000 -1.000000 -0.500000
v -2.200000 2.100000 0.500000
v -2.200000 1.900000 0.500000
v -2.200000 2.100000 -0.500000
v -2.200000 1.900000 -0.500000
v 2.200000 2.100000 0.500000
v 2.200000 1.900000 0.500000
v 2.200000 2.100000 -0.500000
v 2.200000 1.900000 -0.500000
v 2.200000 4.100000 0.500000
v 2.200000 4.282541 0.500000
v 1.980000 4.282541 0.500000
v -2.200000 4.100000 0.500000
v -2.200000 3.900000 0.500000
v -2.200000 4.100000 -0.500000
v -2.200000 3.900000 -0.500000
v 2.200000 3.900000 0.500000
v 2.200000 4.100000 -0.500000
v 2.200000 3.900000 -0.500000
v -1.980000 4.282541 -0.316667
v -2.200000 4.282541 -0.316667
v -1.980000 4.282541 0.500000
v -2.200000 4.282541 0.500000
v -1.980000 4.282541 -0.500000
v -1.980000 4.282541 0.316667
v -2.200000 4.282541 0.316667
v 2.200000 4.282541 0.316667
v 1.980000 4.282541 0.316667
v 2.200000 4.282541 -0.500000
v 1.980000 4.282541 -0.500000
v 1.980000 4.282541 -0.316667
v 2.200000 4.282541 -0.316667
v -2.200000 4.282541 -0.500000
vt -0.000271 0.694592
vt -0.000271 0.610395
vt 0.528729 0.610396
vt 0.528729 0.694593
vt 0.137500 0.704167
vt 0.362500 0.704167
vt 0.362500 0.750000
vt 0.137500 0.750000
vt -0.001531 0.793079
vt -0.001531 0.708882
vt 0.527469 0.708883
vt 0.527469 0.793079
vt 0.637500 0.704167
vt 0.862500 0.704167
vt 0.862500 0.750000
vt 0.637500 0.750000
vt 0.637500 0.500000
vt 0.862500 0.500000
vt 0.862500 0.545833
vt 0.637500 0.545833
vt 0.625000 0.545833
vt 0.625000 0.704167
vt 0.137500 0.500000
vt 0.362500 0.500000
vt 0.362500 0.545833
vt 0.137500 0.545833
vt 0.125000 0.545833
vt 0.125000 0.704167
vt 0.456542 0.545833
vt 0.543457 0.545833
vt 0.543457 0.704167
vt 0.456542 0.704167
vt 0.375000 0.545833
vt 0.375000 0.704167
vt 0.456542 0.095849
vt 0.543457 0.095849
vt 0.543457 0.254182
vt 0.456542 0.254182
vt 0.875000 0.545833
vt 0.875000 0.704167
vt 0.530783 0.410946
vt 0.530783 0.495142
vt 0.001783 0.495142
vt 0.001783 0.410945
vt 0.137500 0.704167
vt 0.362500 0.704167
vt 0.362500 0.750000
vt 0.137500 0.750000
vt 0.528729 0.516673
vt 0.528729 0.600869
vt -0.000271 0.600869
vt -0.000271 0.516672
vt 0.637500 0.704167
vt 0.862500 0.704167
vt 0.862500 0.750000
vt 0.637500 0.750000
vt 0.637500 0.500000
vt 0.862500 0.500000
vt 0.862500 0.545833
vt 0.637500 0.545833
vt 0.625000 0.545833
vt 0.625000 0.704167
vt 0.137500 0.500000
vt 0.362500 0.500000
vt 0.362500 0.545833
vt 0.137500 0.545833
vt 0.125000 0.545833
vt 0.125000 0.704167
vt 0.456542 0.545833
vt 0.543457 0.545833
vt 0.543457 0.704167
vt 0.456542 0.704167
vt 0.375000 0.545833
vt 0.375000 0.704167
vt 0.456542 0.095849
vt 0.543457 0.095849
vt 0.543457 0.254182
vt 0.456542 0.254182
vt 0.875000 0.545833
vt 0.875000 0.704167
vt 0.526814 0.207970
vt 0.526814 0.292167
vt -0.002186 0.292166
vt -0.002186 0.207969
vt 0.137500 0.704167
vt 0.362500 0.704167
vt 0.362500 0.750000
vt 0.137500 0.750000
vt 0.530455 0.308576
vt 0.530455 0.392773
vt 0.001455 0.392773
vt 0.001455 0.308576
vt 0.637500 0.704167
vt 0.862500 0.704167
vt 0.862500 0.750000
vt 0.637500 0.750000
vt 0.637500 0.500000
vt 0.862500 0.500000
vt 0.862500 0.545833
vt 0.637500 0.545833
vt 0.625000 0.545833
vt 0.625000 0.704167
vt 0.137500 0.500000
vt 0.362500 0.500000
vt 0.362500 0.545833
vt 0.137500 0.545833
vt 0.125000 0.545833
vt 0.125000 0.704167
vt 0.456542 0.545833
vt 0.543457 0.545833
vt 0.543457 0.704167
vt 0.456542 0.704167
vt 0.375000 0.545833
vt 0.375000 0.704167
vt 0.456542 0.095849
vt 0.543457 0.095849
vt 0.543457 0.254182
vt 0.456542 0.254182
vt 0.875000 0.545833
vt 0.875000 0.704167
vt 0.000000 0.000000
vt 0.000000 0.000000
vt 0.000000 0.000000
vt 0.000000 0.000000
vt 0.375000 0.987500
vt 0.625000 0.987500
vt 0.625000 1.000000
vt 0.375000 1.000000
vt 0.375000 0.204167
vt 0.625000 0.204167
vt 0.625000 0.250000
vt 0.375000 0.250000
vt 0.375000 0.750000
vt 0.375000 0.750000
vt 0.375000 0.704167
vt 0.625000 0.750000
vt 0.375000 0.487500
vt 0.625000 0.487500
vt 0.625000 0.500000
vt 0.375000 0.500000
vt 0.625000 0.262500
vt 0.375000 0.262500
vt 0.375000 0.545833
vt 0.375000 0.500000
vt 0.625000 0.762500
vt 0.375000 0.762500
vt 0.000000 0.000000
vt 0.000000 0.000000
vt 0.000000 0.000000
vt 0.000000 0.000000
vt 0.000000 0.000000
vt 0.000000 0.000000
vt 0.000000 0.000000
vt 0.000000 0.000000
vt 0.362500 0.704167
vt 0.362500 0.545833
vt 0.375000 0.000000
vt 0.625000 0.000000
vt 0.625000 0.045833
vt 0.375000 0.045833
vt 0.000000 0.000000
vt 0.000000 0.000000
vt 0.000000 0.000000
vt 0.000000 0.000000
vt 0.362500 0.750000
vt 0.125000 0.704167
vt 0.137500 0.704167
vt 0.137500 0.750000
vt 0.125000 0.750000
vt 0.125000 0.500000
vt 0.137500 0.500000
vt 0.137500 0.545833
vt 0.125000 0.545833
vt 0.362500 0.500000
vt 0.375000 0.487500
vt 0.375000 0.250000
vt 0.375000 0.204167
vt 0.375000 0.045833
vt 0.375000 0.000000
vt 0.375000 0.762500
vt 0.375000 0.262500
vt 0.375000 1.000000
vt 0.375000 0.987500
vt 0.000000 0.000000
vt 0.000000 0.000000
vt 0.000000 0.000000
vt 0.000000 0.000000
vt 0.375000 0.987500
vt 0.625000 0.987500
vt 0.625000 1.000000
vt 0.375000 1.000000
vt 0.375000 0.204167
vt 0.625000 0.204167
vt 0.625000 0.250000
vt 0.375000 0.250000
vt 0.625000 0.750000
vt 0.375000 0.750000
vt 0.375000 0.487500
vt 0.625000 0.487500
vt 0.625000 0.500000
vt 0.375000 0.500000
vt 0.625000 0.262500
vt 0.375000 0.262500
vt 0.625000 0.762500
vt 0.375000 0.762500
vt 0.000000 0.000000
vt 0.000000 0.000000
vt 0.000000 0.000000
vt 0.000000 0.000000
vt 0.000000 0.000000
vt 0.000000 0.000000
vt 0.000000 0.000000
vt 0.000000 0.000000
vt 0.375000 0.000000
vt 0.625000 0.000000
vt 0.625000 0.045833
vt 0.375000 0.045833
vt 0.000000 0.000000
vt 0.000000 0.000000
vt 0.000000 0.000000
vt 0.000000 0.000000
vt 0.625000 0.762500
vt 0.625000 0.750000
vt 0.625000 0.750000
vt 0.625000 0.762500
vt 0.375000 0.987500
vt 0.625000 0.987500
vt 0.625000 1.000000
vt 0.375000 1.000000
vt 0.375000 0.204167
vt 0.625000 0.204167
vt 0.625000 0.250000
vt 0.375000 0.250000
vt 0.375000 0.750000
vt 0.375000 0.487500
vt 0.625000 0.487500
vt 0.625000 0.500000
vt 0.375000 0.500000
vt 0.625000 0.262500
vt 0.375000 0.262500
vt 0.375000 0.762500
vt 0.862500 0.545833
vt 0.875000 0.545833
vt 0.625000 0.987500
vt 0.625000 1.000000
vt 0.375000 0.000000
vt 0.625000 0.000000
vt 0.625000 0.045833
vt 0.375000 0.045833
vt 0.862500 0.500000
vt 0.000000 0.000000
vt 0.000000 0.000000
vt 0.000000 0.000000
vt 0.000000 0.000000
vt 0.000000 0.000000
vt 0.000000 0.000000
vt 0.000000 0.000000
vt 0.000000 0.000000
vt 0.000000 0.000000
vt 0.000000 0.000000
vt 0.000000 0.000000
vt 0.000000 0.000000
vt 0.000000 0.000000
vt 0.000000 0.000000
vt 0.000000 0.000000
vt 0.000000 0.000000
vt 0.000000 0.000000
vt 0.000000 0.000000
vt 0.000000 0.000000
vt 0.000000 0.000000
vt 0.000000 0.000000
vt 0.000000 0.000000
vt 0.000000 0.000000
vt 0.000000 0.000000
vt 0.000000 0.000000
vt 0.000000 0.000000
vt 0.000000 0.000000
vt 0.000000 0.000000
vt 0.000000 0.000000
vt 0.000000 0.000000
vt 0.000000 0.000000
vt 0.000000 0.000000
vt 0.862500 0.704167
vt 0.875000 0.704167
vt 0.875000 0.750000
vt 0.862500 0.750000
vt 0.625000 0.704167
vt 0.637500 0.704167
vt 0.637500 0.750000
vt 0.625000 0.500000
vt 0.637500 0.500000
vt 0.637500 0.545833
vt 0.625000 0.545833
vt 0.875000 0.500000
vt 0.625000 0.204167
vt 0.625000 0.250000
vt 0.625000 0.000000
vt 0.625000 0.045833
vt 0.625000 0.487500
vt 0.625000 0.262500
vn 0.0000 -0.0000 -1.0000
vn 0.0000 -1.0000 0.0000
vn 0.0000 0.0000 1.0000
vn 0.0000 1.0000 -0.0000
vn 1.0000 0.0000 0.0000
vn -1.0000 0.0000 0.0000
usemtl Woood
s 1
f 1/1/1 2/2/1 3/3/1 4/4/1
f 5/5/2 6/6/2 7/7/2 8/8/2
f 7/9/3 9/10/3 10/11/3 8/12/3
f 11/13/4 12/14/4 10/15/4 9/16/4
f 3/17/4 2/18/4 13/19/4 14/20/4
f 14/20/4 13/19/4 12/14/4 11/13/4
f 15/21/4 14/20/4 11/13/4 16/22/4
f 1/23/2 4/24/2 17/25/2 18/26/2
f 18/26/2 17/25/2 6/6/2 5/5/2
f 19/27/2 18/26/2 5/5/2 20/28/2
f 21/29/5 15/30/5 16/31/5 22/32/5
f 17/25/2 21/33/2 22/34/2 6/6/2
f 20/35/6 23/36/6 24/37/6 19/38/6
f 13/19/4 24/39/4 23/40/4 12/14/4
f 25/41/1 26/42/1 27/43/1 28/44/1
f 29/45/2 30/46/2 31/47/2 32/48/2
f 31/49/3 33/50/3 34/51/3 32/52/3
f 35/53/4 36/54/4 34/55/4 33/56/4
f 27/57/4 26/58/4 37/59/4 38/60/4
f 38/60/4 37/59/4 36/54/4 35/53/4
f 39/61/4 38/60/4 35/53/4 40/62/4
f 25/63/2 28/64/2 41/65/2 42/66/2
f 42/66/2 41/65/2 30/46/2 29/45/2
f 43/67/2 42/66/2 29/45/2 44/68/2
f 45/69/5 39/70/5 40/71/5 46/72/5
f 41/65/2 45/73/2 46/74/2 30/46/2
f 44/75/6 47/76/6 48/77/6 43/78/6
f 37/59/4 48/79/4 47/80/4 36/54/4
f 49/81/1 50/82/1 51/83/1 52/84/1
f 53/85/2 54/86/2 55/87/2 56/88/2
f 55/89/3 57/90/3 58/91/3 56/92/3
f 59/93/4 60/94/4 58/95/4 57/96/4
f 51/97/4 50/98/4 61/99/4 62/100/4
f 62/100/4 61/99/4 60/94/4 59/93/4
f 63/101/4 62/100/4 59/93/4 64/102/4
f 49/103/2 52/104/2 65/105/2 66/106/2
f 66/106/2 65/105/2 54/86/2 53/85/2
f 67/107/2 66/106/2 53/85/2 68/108/2
f 69/109/5 63/110/5 64/111/5 70/112/5
f 65/105/2 69/113/2 70/114/2 54/86/2
f 68/115/6 71/116/6 72/117/6 67/118/6
f 61/99/4 72/119/4 71/120/4 60/94/4
usemtl Metal
f 12/121/1 23/122/1 44/123/1 29/124/1
f 8/125/3 10/126/3 73/127/3 74/128/3
f 19/129/6 24/130/6 75/131/6 76/132/6
f 22/34/5 77/133/5 78/134/5 79/135/5
f 22/34/5 16/22/5 80/136/5 77/133/5
f 4/137/1 3/138/1 81/139/1 82/140/1
f 76/132/1 75/131/1 2/141/1 1/142/1
f 82/140/5 21/33/5 83/143/5 84/144/5
f 77/133/3 80/136/3 9/145/3 7/146/3
f 11/147/6 9/148/6 31/149/6 30/150/6
f 14/151/3 15/152/3 45/153/3 41/154/3
f 6/6/1 22/34/1 79/135/1 85/155/1
f 82/140/5 81/139/5 15/21/5 21/33/5
f 21/33/3 17/25/3 86/156/3 83/143/3
f 74/157/6 73/158/6 23/159/6 20/160/6
f 13/161/5 2/162/5 25/163/5 42/164/5
f 85/155/2 79/135/2 78/134/2 87/165/2
f 88/166/2 89/167/2 90/168/2 91/169/2
f 92/170/2 93/171/2 94/172/2 95/173/2
f 96/174/2 84/144/2 83/143/2 86/156/2
f 4/137/1 82/140/1 84/144/1 96/175/1
f 18/26/3 19/27/3 95/173/3 94/172/3
f 19/129/6 76/132/6 92/176/6 95/177/6
f 1/23/5 18/26/5 94/172/5 93/171/5
f 20/28/1 5/5/1 89/167/1 88/166/1
f 5/5/5 8/8/5 90/168/5 89/167/5
f 74/157/6 20/160/6 88/178/6 91/179/6
f 77/133/3 7/146/3 87/180/3 78/134/3
f 7/7/6 6/6/6 85/155/6 87/165/6
f 76/132/1 1/142/1 93/181/1 92/176/1
f 17/25/6 4/24/6 96/174/6 86/156/6
f 8/125/3 74/128/3 91/182/3 90/183/3
f 36/184/1 47/185/1 68/186/1 53/187/1
f 32/188/3 34/189/3 97/190/3 98/191/3
f 43/192/6 48/193/6 99/194/6 100/195/6
f 46/74/5 40/62/5 101/196/5 102/197/5
f 28/198/1 27/199/1 103/200/1 104/201/1
f 100/195/1 99/194/1 26/202/1 25/203/1
f 102/197/3 101/196/3 33/204/3 31/205/3
f 35/206/6 33/207/6 55/208/6 54/209/6
f 38/210/3 39/211/3 69/212/3 65/213/3
f 104/201/5 103/200/5 39/61/5 45/73/5
f 98/214/6 97/215/6 47/216/6 44/217/6
f 37/218/5 26/219/5 49/220/5 66/221/5
f 57/222/3 105/223/3 106/224/3 107/225/3
f 56/226/3 58/227/3 108/228/3 109/229/3
f 67/230/6 72/231/6 110/232/6 111/233/6
f 70/114/5 64/102/5 105/223/5 112/234/5
f 52/235/1 51/236/1 113/237/1 114/238/1
f 111/233/1 110/232/1 50/239/1 49/240/1
f 112/234/3 105/223/3 57/222/3 55/241/3
f 72/119/3 61/99/3 115/242/3 116/243/3
f 108/228/3 58/227/3 117/244/3 118/245/3
f 114/238/5 113/237/5 63/101/5 69/113/5
f 109/246/6 108/247/6 71/248/6 68/249/6
f 61/99/5 50/98/5 119/250/5 115/242/5
f 10/251/5 12/121/5 29/124/5 32/252/5
f 24/253/3 13/161/3 42/164/3 43/254/3
f 3/255/6 14/151/6 41/154/6 28/256/6
f 16/257/1 11/147/1 30/150/1 46/258/1
f 27/259/6 38/210/6 65/213/6 52/260/6
f 40/261/1 35/206/1 54/209/1 70/262/1
f 48/263/3 37/218/3 66/221/3 67/264/3
f 34/265/5 36/184/5 53/187/5 56/266/5
f 23/122/6 73/267/6 98/268/6 44/123/6
f 73/267/3 10/251/3 32/252/3 98/268/3
f 9/148/3 80/269/3 102/270/3 31/149/3
f 80/269/5 16/257/5 46/258/5 102/270/5
f 2/162/1 75/271/1 100/272/1 25/163/1
f 75/271/6 24/253/6 43/254/6 100/272/6
f 15/152/5 81/273/5 104/274/5 45/153/5
f 81/273/1 3/255/1 28/256/1 104/274/1
f 39/211/5 103/275/5 114/276/5 69/212/5
f 103/275/1 27/259/1 52/260/1 114/276/1
f 33/207/3 101/277/3 112/278/3 55/208/3
f 101/277/5 40/261/5 70/262/5 112/278/5
f 26/219/1 99/279/1 111/280/1 49/220/1
f 99/279/6 48/263/6 67/264/6 111/280/6
f 47/185/6 97/281/6 109/282/6 68/186/6
f 97/281/3 34/265/3 56/266/3 109/282/3
f 120/283/4 121/284/4 118/285/4 117/286/4
f 122/287/4 123/288/4 107/289/4 106/224/4
f 124/290/4 125/291/4 126/292/4 127/293/4
f 119/250/4 128/294/4 116/243/4 115/242/4
f 105/223/5 64/102/5 122/287/5 106/224/5
f 60/94/1 71/120/1 121/284/1 120/283/1
f 63/101/5 113/237/5 124/290/5 127/293/5
f 110/232/6 72/231/6 116/295/6 128/296/6
f 62/100/3 63/101/3 127/293/3 126/292/3
f 71/248/6 108/247/6 118/297/6 121/298/6
f 64/102/1 59/93/1 123/288/1 122/287/1
f 113/237/1 51/236/1 125/299/1 124/290/1
f 51/97/6 62/100/6 126/292/6 125/291/6
f 50/239/1 110/232/1 128/296/1 119/300/1
f 59/93/6 57/96/6 107/289/6 123/288/6
f 58/95/5 60/94/5 120/283/5 117/286/5
