# Blender v3.5.1 OBJ File: ''
# www.blender.org
mtllib wood_box.mtl
o Cube.001
v 0.848362 1.000000 -0.848362
v -0.848362 1.000000 -0.848362
v -0.848362 -0.827082 -0.848362
v 0.848362 -0.827082 -0.848362
v 1.000000 -1.000000 1.000000
v 1.000000 1.000000 1.000000
v -1.000000 1.000000 1.000000
v -1.000000 -1.000000 1.000000
v -1.000000 1.000000 -1.000000
v -1.000000 -1.000000 -1.000000
v 1.000000 -1.000000 -1.000000
v 1.000000 1.000000 -1.000000
v 0.848362 1.000000 0.848362
v -0.848362 1.000000 0.848362
v -0.848362 -0.827082 0.848362
v 0.848362 -0.827082 0.848362
vt 0.850058 0.944978
vt 0.666769 0.944978
vt 0.666769 0.571878
vt 0.850058 0.571878
vt 0.271912 -0.205109
vt 0.271912 0.203302
vt 0.055862 0.203302
vt 0.055862 -0.205109
vt 0.872113 0.095389
vt 0.872113 0.503801
vt 0.656063 0.503801
vt 0.656063 0.095389
vt 0.055862 0.203302
vt 0.271912 0.203302
vt 0.271912 0.611714
vt 0.055862 0.611714
vt 0.490981 0.096647
vt 0.490981 0.505058
vt 0.274932 0.505058
vt 0.274932 0.096647
vt 0.594336 0.095708
vt 0.594336 0.504120
vt 0.378287 0.504120
vt 0.378287 0.095708
vt 0.504342 0.172337
vt 0.687631 0.172337
vt 0.704011 0.203302
vt 0.487962 0.203302
vt 0.504342 -0.174144
vt 0.487962 -0.205109
vt 0.687631 -0.174144
vt 0.704011 -0.205109
vt 0.487962 0.949504
vt 0.671250 0.949504
vt 0.671250 1.295984
vt 0.487962 1.295984
vt 1.059152 0.945260
vt 0.875863 0.945260
vt 0.875863 0.572159
vt 1.059152 0.572159
vt 0.671250 0.949504
vt 0.487962 0.949504
vt 0.487962 0.576403
vt 0.671250 0.576403
vt 1.119896 0.948574
vt 0.936608 0.948574
vt 0.936608 0.575474
vt 1.119897 0.575474
vn 0.0000 0.0000 1.0000
vn -1.0000 -0.0000 0.0000
vn 0.0000 -1.0000 0.0000
vn 1.0000 0.0000 0.0000
vn 0.0000 -0.0000 -1.0000
vn -0.0000 1.0000 -0.0000
usemtl Material.001
s 1
f 1/1/1 2/2/1 3/3/1 4/4/1
f 5/5/1 6/6/1 7/7/1 8/8/1
f 8/9/2 7/10/2 9/11/2 10/12/2
f 10/13/3 11/14/3 5/15/3 8/16/3
f 11/17/4 12/18/4 6/19/4 5/20/4
f 10/21/5 9/22/5 12/23/5 11/24/5
f 13/25/6 14/26/6 7/27/6 6/28/6
f 1/29/6 13/25/6 6/28/6 12/30/6
f 14/26/6 2/31/6 9/32/6 7/27/6
f 2/31/6 1/29/6 12/30/6 9/32/6
f 4/33/6 3/34/6 15/35/6 16/36/6
f 13/37/2 1/38/2 4/39/2 16/40/2
f 2/41/4 14/42/4 15/43/4 3/44/4
f 14/45/5 13/46/5 16/47/5 15/48/5
